<svg xmlns="http://www.w3.org/2000/svg" xmlns:xlink="http://www.w3.org/1999/xlink" height="128" width="128"><defs><linearGradient id="i" y2="42.262" xlink:href="#a" gradientUnits="userSpaceOnUse" x2="24" gradientTransform="matrix(2.4595 0 0 2.5676 5.973 8.38)" y1="5.591" x1="24"/><linearGradient id="a"><stop stop-color="#fff" offset="0"/><stop stop-color="#fff" stop-opacity=".235" offset=".091"/><stop stop-color="#fff" stop-opacity=".157" offset=".85"/><stop stop-color="#fff" stop-opacity=".392" offset="1"/></linearGradient><radialGradient id="e" gradientUnits="userSpaceOnUse" cy="43.5" cx="4.993" gradientTransform="matrix(2.0039 0 0 1.4 25.877 -17.4)" r="2.5"><stop stop-color="#181818" offset="0"/><stop stop-color="#181818" stop-opacity="0" offset="1"/></radialGradient><radialGradient id="f" gradientUnits="userSpaceOnUse" cy="43.5" cx="4.993" gradientTransform="matrix(2.0038 0 0 1.4 -21.419 -104.4)" r="2.5"><stop stop-color="#181818" offset="0"/><stop stop-color="#181818" stop-opacity="0" offset="1"/></radialGradient><linearGradient id="g" y2="39.999" gradientUnits="userSpaceOnUse" x2="25.058" gradientTransform="matrix(.87434 0 0 1 2.664 0)" y1="47.028" x1="25.058"><stop stop-color="#181818" stop-opacity="0" offset="0"/><stop stop-color="#181818" offset=".5"/><stop stop-color="#181818" stop-opacity="0" offset="1"/></linearGradient><linearGradient id="b"><stop offset="0"/><stop stop-opacity="0" offset="1"/></linearGradient><radialGradient id="d" xlink:href="#b" gradientUnits="userSpaceOnUse" cy="93.468" cx="-4.029" gradientTransform="matrix(1.5564 0 0 .16979 72.27 102.13)" r="35.338"/><radialGradient id="h" gradientUnits="userSpaceOnUse" cy="4.342" cx="32" gradientTransform="matrix(0 4.1073 -3.9361 0 82.09 -109.71)" r="27.5"><stop stop-color="#fafafa" offset="0"/><stop stop-color="#e1e1e1" offset="1"/></radialGradient><linearGradient id="j" y2="33" xlink:href="#b" gradientUnits="userSpaceOnUse" x2="32" gradientTransform="matrix(1.6727 0 0 2 10.636 6)" y1="18" x1="32"/><radialGradient id="k" xlink:href="#b" gradientUnits="userSpaceOnUse" cy="20" cx="12.5" gradientTransform="matrix(1 0 0 .66667 16 6.667)" r="4.5"/><radialGradient id="l" xlink:href="#b" gradientUnits="userSpaceOnUse" cy="20" cx="12.5" gradientTransform="matrix(.83333 0 0 .55556 18.333 8.389)" r="4.5"/><radialGradient id="m" xlink:href="#b" gradientUnits="userSpaceOnUse" cy="20" cx="12.5" gradientTransform="matrix(1 0 0 .66667 8 6.667)" r="4.5"/><radialGradient id="n" xlink:href="#b" gradientUnits="userSpaceOnUse" cy="20" cx="12.5" gradientTransform="matrix(.83333 0 0 .55556 10.333 8.389)" r="4.5"/><radialGradient id="o" xlink:href="#b" gradientUnits="userSpaceOnUse" cy="20" cx="12.5" gradientTransform="matrix(1 0 0 .66667 24 6.667)" r="4.5"/><radialGradient id="p" xlink:href="#b" gradientUnits="userSpaceOnUse" cy="20" cx="12.5" gradientTransform="matrix(.83333 0 0 .55556 26.333 8.389)" r="4.5"/><radialGradient id="q" xlink:href="#b" gradientUnits="userSpaceOnUse" cy="20" cx="12.5" gradientTransform="matrix(1 0 0 .66667 0 6.667)" r="4.5"/><radialGradient id="r" xlink:href="#b" gradientUnits="userSpaceOnUse" cy="20" cx="12.5" gradientTransform="matrix(.83333 0 0 .55556 2.333 8.389)" r="4.5"/><linearGradient id="c"><stop stop-color="#fff" offset="0"/><stop stop-color="#fff" stop-opacity="0" offset="1"/></linearGradient><linearGradient id="v" y2="18" xlink:href="#c" gradientUnits="userSpaceOnUse" x2="9" gradientTransform="translate(59.083 -4.417) scale(3.1667)" y1="21" x1="9"/><linearGradient id="t" y2="18" xlink:href="#c" gradientUnits="userSpaceOnUse" x2="9" gradientTransform="translate(17.083 -4.417) scale(3.1667)" y1="21" x1="9"/><linearGradient id="x" y2="38" gradientUnits="userSpaceOnUse" x2="20" gradientTransform="matrix(2.6 0 0 2.3846 3.8 6.308)" y1="27" x1="20"><stop stop-color="#64baff" offset="0"/><stop stop-color="#8cd5ff" offset="1"/></linearGradient><linearGradient id="z" y2="10" gradientUnits="userSpaceOnUse" x2="8" gradientTransform="matrix(8.3334 0 0 7.7738 22.333 5.78)" y1="15" x1="8"><stop stop-color="#ae6a37" offset="0"/><stop stop-color="#d28e5b" offset="1"/></linearGradient><linearGradient id="y" y2="15" gradientUnits="userSpaceOnUse" x2="9" gradientTransform="matrix(8.3334 0 0 7.7738 22.333 5.78)" y1="10" x1="9"><stop stop-color="#492714" stop-opacity=".625" offset="0"/><stop stop-color="#6a3f1f" stop-opacity=".77" offset="1"/></linearGradient><linearGradient id="A" y2="230.21" gradientUnits="userSpaceOnUse" x2="633.24" gradientTransform="matrix(10.617 0 0 9.1124 -6632.9 -1979.7)" y1="225.82" x1="633.24"><stop stop-color="#fff" offset="0"/><stop stop-color="#fff" stop-opacity=".235" offset=".1"/><stop stop-color="#fff" stop-opacity=".157" offset=".975"/><stop stop-color="#fff" stop-opacity=".392" offset="1"/></linearGradient><linearGradient id="B" y2="34" gradientUnits="userSpaceOnUse" x2="23" gradientTransform="matrix(0 2.6364 -2.8462 0 144.77 40.182)" y1="34" x1="11"><stop stop-color="#fff" offset="0"/><stop stop-color="#fff" stop-opacity=".235" offset=".063"/><stop stop-color="#fff" stop-opacity=".157" offset=".951"/><stop stop-color="#fff" stop-opacity=".392" offset="1"/></linearGradient><linearGradient id="s" y2="18" xlink:href="#c" gradientUnits="userSpaceOnUse" x2="9" gradientTransform="translate(-3.917 -4.417) scale(3.1667)" y1="21" x1="9"/><linearGradient id="w" y2="39" xlink:href="#a" gradientUnits="userSpaceOnUse" x2="71" y1="19" x1="71"/></defs><path opacity=".2" d="M121 118c-.006 3.313-24.628 5.999-55 5.999S11.006 121.313 11 118c-.006-3.314 24.62-6.001 55-6.001s55.006 2.687 55 6.001z" fill="url(#d)" color="#000"/><g opacity=".4"><path fill="url(#e)" d="M35.889 40h5v7h-5z" transform="matrix(2.84202 0 0 .71428 -2.21 87.43)"/><path transform="matrix(-2.84202 0 0 -.71428 -2.21 87.43)" fill="url(#f)" d="M-11.407-47h5v7h-5z"/><path fill="url(#g)" d="M11.407 40h24.482v7H11.407z" transform="matrix(2.84202 0 0 .71428 -2.21 87.43)"/></g><path d="M23.5 22a4.49 4.49 0 0 0-4.5 4.5v87a4.49 4.49 0 0 0 4.5 4.5h83a4.49 4.49 0 0 0 4.5-4.5v-87a4.49 4.49 0 0 0-4.5-4.5zm5 47.5h39v31h-39z" fill="url(#h)" color="#000"/><rect stroke-linejoin="round" rx="4" ry="4" height="95" width="91" stroke="url(#i)" stroke-linecap="round" y="22.502" x="19.5" fill="none"/><rect opacity=".25" rx="5" ry="5" height="97" width="93" stroke="#000" y="21.502" x="18.5" fill="none" color="#000"/><rect opacity=".2" rx="0" ry="0" height="32" width="92" y="40" x="19" fill="url(#j)"/><g fill-rule="evenodd" transform="matrix(2.6667 0 0 2.6781 -1.496 2.01)" stroke-width=".374" color="#000"><ellipse opacity=".2" style="isolation:auto;mix-blend-mode:normal" rx="4.5" ry="3" cy="20" cx="28.5" fill="url(#k)"/><ellipse opacity=".2" style="isolation:auto;mix-blend-mode:normal" rx="3.75" ry="2.5" cy="19.5" cx="28.75" fill="url(#l)"/><ellipse opacity=".2" style="isolation:auto;mix-blend-mode:normal" rx="4.5" ry="3" cy="20" cx="20.5" fill="url(#m)"/><ellipse opacity=".2" style="isolation:auto;mix-blend-mode:normal" rx="3.75" ry="2.5" cy="19.5" cx="20.75" fill="url(#n)"/><ellipse opacity=".2" style="isolation:auto;mix-blend-mode:normal" rx="4.5" ry="3" cy="20" cx="36.5" fill="url(#o)"/><ellipse opacity=".2" style="isolation:auto;mix-blend-mode:normal" rx="3.75" ry="2.5" cy="19.5" cx="36.75" fill="url(#p)"/><ellipse opacity=".2" style="isolation:auto;mix-blend-mode:normal" rx="4.5" ry="3" cy="20" cx="12.5" fill="url(#q)"/><ellipse opacity=".2" style="isolation:auto;mix-blend-mode:normal" rx="3.75" ry="2.5" cy="19.5" cx="12.75" fill="url(#r)"/></g><path stroke-linejoin="round" d="M74.5 17.5l1 33.5c.173 5.796 4.701 10.5 10.5 10.5S96.5 56.799 96.5 51V40l-2-22.5zM35.5 17.5l-2 22.5v11c0 5.799 4.701 10.5 10.5 10.5S54.5 56.799 54.5 51V40.375l1-22.875z" stroke-opacity=".365" stroke-dashoffset="20" stroke="#000" stroke-linecap="round" fill="#eaeaea"/><path style="isolation:auto;mix-blend-mode:normal;filter-blend-mode:normal;filter-gaussianBlur-deviation:0" d="M113.5 23.5l4 16.5v11c0 5.799-4.701 10.5-10.5 10.5S96.5 56.799 96.5 51V40l-2-22.5H107s5.47-.24 6.5 6zm-97 0l-4 16.5v11c0 5.799 4.701 10.5 10.5 10.5S33.5 56.799 33.5 51V40l2-22.5H23s-5.482-.207-6.5 6zm39-6l-1 22V51c0 5.799 4.701 10.5 10.5 10.5S75.5 56.799 75.5 51V39.5l-1-22z" color="#000" overflow="visible" fill="#4c158a" stroke="#05020d" stroke-linecap="round" stroke-linejoin="round" stroke-dashoffset="20" stroke-opacity=".498"/><circle id="u" stroke-linejoin="round" opacity=".4" style="isolation:auto;mix-blend-mode:normal" stroke-opacity=".392" stroke-linecap="round" stroke="url(#s)" cy="51" cx="23" r="9.5" fill="none" color="#000"/><circle stroke-linejoin="round" style="isolation:auto;mix-blend-mode:normal" stroke-opacity=".392" stroke-linecap="round" stroke="url(#t)" cy="51" cx="44" r="9.5" fill="none" color="#000"/><use xlink:href="#u" transform="translate(42)" height="100%" width="100%"/><circle stroke-linejoin="round" style="isolation:auto;mix-blend-mode:normal" stroke-opacity=".392" stroke-linecap="round" stroke="url(#v)" cy="51" cx="86" r="9.5" fill="none" color="#000"/><use xlink:href="#u" transform="translate(84)" height="100%" width="100%"/><path d="M17.5 23.5l-3.982 16h102.99l-4.013-16s-.5-5.063-5.875-5.125L23 18.5c-4.75 0-5.5 5-5.5 5z" stroke-linejoin="round" stroke="url(#w)" fill-rule="evenodd" fill-opacity=".542" fill="#fff" opacity=".2"/><path opacity=".8" style="isolation:auto;mix-blend-mode:normal" d="M28.5 69.5h39v31h-39z" fill-rule="evenodd" fill="url(#x)" color="#000"/><path opacity=".2" d="M35 81l9-9M40 97l9-9M49 81l9-9" stroke="#fff" stroke-linecap="round" fill="none"/><path stroke-linejoin="round" d="M89 77.577c-6.925 0-12.5 5.4-12.5 11.861V118.5h25V89.438c0-6.46-5.575-11.861-12.5-11.861z" stroke="url(#y)" fill="url(#z)" color="#000"/><path opacity=".5" d="M88.948 78.549c-6.357 0-11.483 4.994-11.474 10.259l.051 28.692h22.948l-.051-28.692c-.01-5.408-5.117-10.259-11.474-10.259z" stroke="url(#A)" fill="none" color="#000"/><path opacity=".2" d="M99 101c0 2.69-4 2.69-4 0s4-2.69 4 0z" color="#000"/><path d="M99 100c0 2.69-4 2.69-4 0s4-2.69 4 0z" fill="#620" color="#000"/><path stroke-linejoin="round" style="isolation:auto;mix-blend-mode:normal" d="M66.5 70.5v29h-37v-29z" stroke-opacity=".625" stroke="url(#B)" stroke-linecap="round" fill="none" color="#000"/><path opacity=".4" d="M28.507 101.5h38.986" stroke="#fff" stroke-linecap="round" fill="none"/><path opacity=".2" d="M56 90l9-9" stroke="#fff" stroke-linecap="round" fill="none"/><path stroke-linejoin="round" style="isolation:auto;mix-blend-mode:normal" d="M28.5 69.5h39v31h-39z" stroke="#64baff" stroke-linecap="round" fill="none" color="#000"/><path opacity=".1" d="M13.518 39.5h102.99" stroke="#fff" fill="none"/><path fill="none" stroke-linecap="round" stroke="#000" d="M28.5 69.5h39v31h-39z" style="isolation:auto;mix-blend-mode:normal" stroke-linejoin="round" color="#000" opacity=".2"/></svg>