<?xml version="1.0" encoding="UTF-8" standalone="no"?>
<svg
   xmlns:osb="http://www.openswatchbook.org/uri/2009/osb"
   xmlns:dc="http://purl.org/dc/elements/1.1/"
   xmlns:cc="http://creativecommons.org/ns#"
   xmlns:rdf="http://www.w3.org/1999/02/22-rdf-syntax-ns#"
   xmlns:svg="http://www.w3.org/2000/svg"
   xmlns="http://www.w3.org/2000/svg"
   xmlns:sodipodi="http://sodipodi.sourceforge.net/DTD/sodipodi-0.dtd"
   xmlns:inkscape="http://www.inkscape.org/namespaces/inkscape"
   width="512"
   height="512"
   version="1"
   id="svg2"
   inkscape:version="0.91 r13725"
   sodipodi:docname="com.github.robertsanseries.karim.svg"
   inkscape:export-filename="/home/robertsanseries/Desenvolvimento/web/images/com.github.robertsanseries.karim.svg"
   inkscape:export-xdpi="45"
   inkscape:export-ydpi="45">
  <metadata
     id="metadata12">
    <rdf:RDF>
      <cc:Work
         rdf:about="">
        <dc:format>image/svg+xml</dc:format>
        <dc:type
           rdf:resource="http://purl.org/dc/dcmitype/StillImage" />
        <dc:title>Template</dc:title>
      </cc:Work>
    </rdf:RDF>
  </metadata>
  <defs
     id="defs10">
    <linearGradient
       id="linearGradient4252"
       osb:paint="solid">
      <stop
         style="stop-color:#000000;stop-opacity:1;"
         offset="0"
         id="stop4254" />
    </linearGradient>
  </defs>
  <sodipodi:namedview
     pagecolor="#ffffff"
     bordercolor="#666666"
     borderopacity="1"
     objecttolerance="10"
     gridtolerance="10"
     guidetolerance="10"
     inkscape:pageopacity="0"
     inkscape:pageshadow="2"
     inkscape:window-width="1024"
     inkscape:window-height="705"
     id="namedview8"
     showgrid="false"
     inkscape:zoom="1.0390625"
     inkscape:cx="66.887218"
     inkscape:cy="256"
     inkscape:window-x="0"
     inkscape:window-y="30"
     inkscape:window-maximized="1"
     inkscape:current-layer="svg2"
     inkscape:object-paths="false"
     showguides="false" />
  <title
     id="title4">Template</title>
  <path
     style="opacity:0.07000002;fill:#000000;fill-opacity:1;fill-rule:evenodd;stroke:none"
     id="path3984"
     d="M 45.2965,0.32700937 A 32.817589,31.719489 0 0 0 43.232557,1.3250558 32.817589,31.719489 0 0 0 37.040413,2.3219506 C 37.464598,2.187838 33.53226,3.4861517 33.944247,3.319995 34.356139,3.1539081 29.419499,5.5131379 29.816203,5.3150766 30.212498,5.1167817 26.34164,7.5388117 26.720035,7.3100138 c 0.378426,-0.2302467 -4.486014,2.2531816 -4.128044,1.995056 0.358322,-0.2587004 -3.430944,2.2806032 -3.096164,1.9950562 0.334871,-0.28481 -2.373385,3.303466 -2.063977,2.992548 0.310417,-0.309745 -3.378344,3.326842 -3.096165,2.992529 0.281425,-0.334663 -2.317131,3.348092 -2.063976,2.99252 0.254638,-0.356028 -2.2860867,3.366962 -2.063942,2.992552 0.220917,-0.375032 -2.2537552,4.38067 -2.0639757,3.989881 0.1887724,-0.390445 -2.2200306,3.396863 -2.064067,2.992523 0.1550507,-0.404681 -1.1531137,4.405379 -1.0325387,3.989884 0.1216457,-0.415361 -1.1175016,4.413565 -1.0325397,3.990018 0.089191,-0.423686 -1.0816692,4.418904 -1.0325397,3.98988 0.044755,-0.428422 -0.012602,4.421389 0,3.989998 0.00635,-0.217157 -0.012602,0.91263 0,1.994939 0.012613,1.082332 0.012613,2.210464 0,1.995079 l 0,412.958723 c 0.00635,-0.34886 0.022059,3.34077 0,2.99256 -0.022059,-0.34769 1.073826,3.33884 1.0325397,2.99253 -0.044745,-0.34652 0.067111,3.3354 0,2.99253 -0.067122,-0.34293 1.1207147,3.33043 1.0325397,2.99256 -0.089191,-0.33822 1.1438154,3.32398 1.0325387,2.99251 -0.1128281,-0.3311 1.1663811,3.31618 1.0325387,2.99256 -0.1351981,-0.32401 1.1881241,3.3069 1.0325386,2.99254 -0.1550517,-0.31568 1.2093651,3.29621 1.0325387,2.99253 -0.1786882,-0.30383 2.2616657,2.28676 2.0639747,1.99504 -0.198857,-0.29073 2.281393,3.27092 2.063942,2.99252 -0.217764,-0.2777 2.299957,2.25887 2.063975,1.99496 -0.234469,-0.26585 2.317569,3.24095 2.064068,2.99255 -0.254634,-0.24924 2.33399,2.22669 2.063975,1.99507 -0.271338,-0.23262 3.381057,2.20878 3.096168,1.995 -0.284576,-0.21368 2.362665,2.19018 2.063976,1.99501 -0.300336,-0.19465 3.407717,1.17367 3.096071,0.99804 -0.310419,-0.17555 3.419095,2.1504 3.096167,1.99505 -0.323719,-0.15666 3.42902,1.13219 3.096167,0.99806 -0.332638,-0.13409 2.405432,1.11083 2.063974,0.99689 -0.341586,-0.10676 4.47653,1.08826 4.128042,0.99689 -0.348298,-0.0829 3.449886,1.06567 3.096165,0.99806 -0.353873,-0.0711 3.453828,1.04313 3.096168,0.99686 -0.357215,-0.0473 3.456154,0.0237 3.096044,0 -0.359426,-0.0236 3.456972,-3.4e-4 3.096195,0 -0.360557,3.9e-4 3.456157,-0.0236 3.096168,0 -0.359455,0.0237 3.453696,-0.0473 3.096165,0 -0.357214,0.0474 3.449696,-1.06689 3.096072,-0.99686 -0.353876,0.0711 3.444214,-1.08946 3.096169,-0.99806 -0.348297,0.095 3.437275,-1.11083 3.096164,-0.99689 -0.341585,0.11875 3.428708,-1.13216 3.096168,-0.99689 -0.332635,0.13413 3.418654,-1.15353 3.09607,-0.99806 -0.198854,0.095 1.146843,-0.51859 2.063945,-0.99687 0.572648,-0.30025 1.151537,-1.06572 1.031435,-0.99689 L 472.55321,297.58155 c -0.32033,0.16978 3.40484,-2.18407 3.0962,-1.99492 -0.30696,0.18861 3.39086,-1.20623 3.09618,-0.99807 -0.29372,0.20773 2.34356,-2.22256 2.06392,-1.99508 -0.2814,0.22663 2.3274,-3.23759 2.064,-2.99253 -0.26441,0.24566 3.34186,-2.2566 3.09615,-1.99504 -0.24455,0.26227 2.29136,-2.27192 2.06399,-1.99496 -0.22785,0.27772 2.27147,-3.28352 2.06396,-2.99251 -0.20862,0.29075 1.21885,-3.29623 1.03252,-2.99255 -0.18875,0.30382 2.22952,-2.31037 2.06399,-1.99506 -0.16513,0.3169 1.17495,-3.3177 1.03256,-2.99255 -0.14184,0.32522 1.15207,-3.32614 1.03253,-2.99252 -0.11946,0.33349 1.12861,-3.33321 1.03255,-2.99254 -0.10049,0.34061 1.10508,-3.33872 1.03254,-2.9925 -0.0781,0.34652 1.08052,-4.3401 1.03251,-3.99002 -0.0557,0.35009 0.0221,-3.34501 0,-2.99255 -0.0222,0.35251 0,-3.34584 0,-2.99251 0,0.35362 -0.0222,-3.345 0,-2.99256 0.0221,0.35249 -0.0557,-3.34258 0,-2.9925 0.0557,0.35006 -1.10509,-4.33618 -1.03251,-3.98992 0.0781,0.34655 -1.12866,-3.33322 -1.03254,-2.99251 0.10039,0.34058 -1.15211,-3.32627 -1.03255,-2.99252 0.11944,0.33346 -1.17499,-3.31773 -1.03253,-2.99254 0.14181,0.32515 -1.19742,-3.30775 -1.03256,-2.99253 0.16515,0.31683 -2.25106,-2.29899 -2.06399,-1.99506 0.1888,0.30381 -1.23937,-3.28344 -1.03252,-2.99258 0.20769,0.29082 -2.29136,-3.26938 -2.06396,-2.99254 0.22784,0.27773 -2.30989,-2.25671 -2.06399,-1.99502 0.24457,0.26225 -3.35949,-2.24012 -3.09615,-1.99493 0.2647,0.24565 -2.34357,-3.22005 -2.064,-2.99265 0.28144,0.22656 -2.35883,-2.20357 -2.06392,-1.99498 0.29338,0.20774 -3.40484,-1.18674 -3.09618,-0.99685 0.30696,0.18862 -3.41723,-2.1638 -3.0962,-1.99505 L 77.289664,7.3116716 C 77.451649,7.4066847 77.035027,6.715915 76.258229,6.3136037 75.013819,5.6703906 73.922885,5.1897512 74.194162,5.3167304 c 0.439783,0.204044 -4.585603,-2.1608459 -4.128046,-1.995055 0.457652,0.166086 -4.599121,-1.1226803 -4.128043,-0.998069 0.471045,0.1246841 -5.640924,-1.0823308 -5.160141,-0.9968743 0.4811,0.083056 -4.614751,-1.03961021 -4.128044,-0.99806797 0.486679,0.0474092 -4.616736,-2.5001e-4 -4.128043,0 0.121647,1.1681e-4 -0.603912,-0.0236995 -1.03254,0 -1.284936,0.0593665 -3.461071,0.0356568 -3.096073,0 0.342689,0 -3.437843,0.0236995 -3.096164,0 z"
     inkscape:connector-curvature="0"
     inkscape:transform-center-x="-114.27505"
     inkscape:transform-center-y="-116.9735" />
  <path
     style="opacity:0.15;fill:#000000;fill-opacity:1;fill-rule:evenodd;stroke:none"
     id="path3957-7"
     d="m 33.869912,12.504638 a 17.773849,17.640127 0 0 0 -14.496256,17.70735 l 0,460.392052 a 17.773849,17.640127 0 0 0 26.762485,15.49402 L 474.3348,275.90204 a 17.773849,17.640127 0 0 0 0,-30.98796 L 46.136141,14.718075 A 17.773849,17.640127 0 0 0 33.869912,12.504638 Z"
     inkscape:connector-curvature="0" />
  <path
     style="fill:#c6262e;fill-opacity:1;fill-rule:evenodd;stroke:none"
     id="path3957"
     d="M 39.016012,6.5817761 A 17.294987,17.604893 57.409688 0 0 24.730192,24.259953 l 0,453.686587 A 17.294987,17.604893 57.409688 0 0 51.103684,492.793 L 473.07963,259.19854 a 17.294987,17.604893 57.409688 0 0 0,-30.53671 L 51.103684,8.5695997 A 17.294987,17.604893 57.409688 0 0 39.016012,6.5831519 Z"
     inkscape:connector-curvature="0"
     inkscape:export-xdpi="25.18"
     inkscape:export-ydpi="25.18"
     inkscape:export-filename="/home/robertsanseries/elementary-apps/karim/data/icons/128/com.github.robertsanseries.karim.png" />
  <path
     inkscape:connector-curvature="0"
     style="fill:#fafafa;fill-opacity:1;fill-rule:evenodd;stroke:none"
     id="path3957-3"
     d="m 531.93994,409.55028 a 0.49771432,0.49760896 0 0 0 -0.40593,0.4995 l 0,12.98717 a 0.49771432,0.49760896 0 0 0 0.74942,0.43706 l 11.99068,-6.49358 a 0.49771432,0.49760896 0 0 0 0,-0.87413 l -11.99068,-6.49358 a 0.49771432,0.49760896 0 0 0 -0.34349,-0.0624 z" />
  <path
     inkscape:connector-curvature="0"
     d="m 265.96929,236.31789 c -0.006,-0.0628 -0.1898,-1.28685 -0.20402,-1.34905 -0.0144,-0.0621 -0.38367,-1.11902 -0.40421,-1.17988 -0.0215,-0.0608 -0.37664,-1.12095 -0.40426,-1.17996 -0.0281,-0.0598 -0.5709,-1.12285 -0.60484,-1.17951 -0.0354,-0.0537 -0.76556,-1.12525 -0.80511,-1.17902 -0.0424,-0.0537 -0.75945,-0.95994 -0.80477,-1.01042 -0.0424,-0.0477 -0.95466,-0.96317 -1.00536,-1.00994 -0.0494,-0.0476 -0.94929,-0.79869 -1.00487,-0.84125 -0.0564,-0.0417 -1.14545,-0.80277 -1.20546,-0.84084 -0.0564,-0.0358 -1.34208,-0.80718 -1.40602,-0.84041 -0.0634,-0.0358 -1.13723,-0.47512 -1.20458,-0.50366 -0.0705,-0.0297 -1.335,-0.48009 -1.40518,-0.50325 -0.0705,-0.0238 -1.33282,-0.48607 -1.40515,-0.50325 -0.0727,-0.0177 -1.53136,-0.32246 -1.6053,-0.33366 -0.0739,-0.0118 -1.32941,-0.15974 -1.40431,-0.16555 -0.0746,-0.005 -1.52921,0.004 -1.60446,0.004 l -121.9374,0.2606 c -0.0493,4e-4 -1.15104,-0.002 -1.20334,0.003 -0.0493,0.003 -0.95041,0.16462 -1.00235,0.17069 -0.0493,0.005 -0.95099,0.16163 -1.00237,0.1707 -0.0493,0.005 -0.95175,0.15924 -1.00234,0.17069 -0.0493,0.0121 -0.95276,0.15625 -1.00235,0.17069 -0.0493,0.0121 -0.95355,0.32241 -1.00194,0.33926 -0.0492,0.018 -0.95494,0.32 -1.00192,0.33983 -0.0493,0.018 -0.95608,0.48617 -1.00152,0.50839 -0.0421,0.024 -0.75737,0.48336 -0.80094,0.50797 -0.0422,0.024 -0.95992,0.48139 -1.00151,0.50838 -0.0421,0.03 -0.76145,0.47859 -0.80093,0.50796 -0.0422,0.03 -0.76338,0.64523 -0.80053,0.67645 -0.0352,0.03 -0.56507,0.64289 -0.60021,0.67603 -0.0352,0.0359 -0.76842,0.64147 -0.8005,0.67644 -0.0352,0.0359 -0.57073,0.63939 -0.6002,0.67601 -0.028,0.0359 -0.57308,0.80658 -0.59973,0.8447 -0.0281,0.0359 -0.37573,0.6361 -0.39958,0.6756 -0.0211,0.042 -0.37881,0.80358 -0.39912,0.84426 -0.0211,0.0419 -0.38162,0.80257 -0.39914,0.84426 -0.014,0.0418 -0.38515,0.80175 -0.39912,0.84432 -0.0141,0.0419 -0.18805,0.80059 -0.1985,0.84384 -0.007,0.0418 -0.19044,0.96879 -0.19808,1.0125 -0.007,0.0418 -0.19439,0.79984 -0.19852,0.84384 -0.005,0.0418 0.003,0.79928 0.002,0.84341 -3.8e-4,0.0418 -9.3e-4,0.79935 0.002,0.84346 0.003,0.0418 0.19672,0.96778 0.20317,1.01164 0.007,0.0418 -0.005,0.79997 0.002,0.84341 0.007,0.0419 0.3906,0.79977 0.40338,0.84254 0.0142,0.0419 0.18645,0.80099 0.20275,0.84297 0.0142,0.0418 0.38426,0.80153 0.40337,0.84262 0.0213,0.0417 0.38076,0.80261 0.40338,0.84254 0.0214,0.0417 0.37793,0.80394 0.40337,0.84255 l 61.19958,91.63319 a 5.9149445,7.0325524 89.93 0 0 0.20062,-4.3e-4 c 0.0282,0.0418 0.37372,0.80513 0.40337,0.84254 0.0282,0.0358 0.77146,0.63737 0.80393,0.67302 0.0353,0.0358 0.56872,0.80832 0.604,0.84212 0.0353,0.0358 0.76617,0.64126 0.80392,0.67303 0.0353,0.0298 0.76337,0.47473 0.80351,0.50453 0.0423,0.0298 0.76153,0.64568 0.80391,0.67302 0.0424,0.0298 0.75907,0.47953 0.80349,0.50453 0.0424,0.0238 0.95775,0.4815 1.00405,0.50411 0.0494,0.0236 0.75514,0.31576 0.80307,0.33597 0.0494,0.0179 0.95467,0.48689 1.00404,0.50411 0.0494,0.0179 0.95257,0.15218 1.00321,0.16642 0.0493,0.0119 1.15257,0.32328 1.2042,0.33511 0.0493,0.0119 0.95073,0.15756 1.0032,0.16642 0.0563,0.006 0.95017,0.16054 1.0032,0.16639 0.0563,0.005 1.15039,0.16312 1.20375,0.16598 0.0563,0.004 0.94936,-0.002 1.00277,-0.002 0.0563,-1.2e-4 0.94943,0.002 1.00278,-0.002 0.0563,-0.004 1.14994,-0.16504 1.20286,-0.17111 0.0493,-0.005 0.94999,-0.16162 1.00235,-0.1707 0.0493,-0.006 0.95079,-0.15922 1.00235,-0.1707 0.0493,-0.012 1.15198,-0.32522 1.20248,-0.34026 0.0493,-0.012 0.95313,-0.15327 1.00237,-0.1707 0.0492,-0.0181 0.95369,-0.48796 1.00148,-0.50839 0.0493,-0.018 0.75527,-0.31658 0.80139,-0.33942 0.0492,-0.0238 0.95721,-0.48318 1.00151,-0.50837 0.0421,-0.0239 0.75871,-0.48038 0.80095,-0.50796 0.0421,-0.03 0.76053,-0.6466 0.80051,-0.67645 0.0422,-0.03 0.76339,-0.4756 0.80097,-0.50796 0.0352,-0.03 0.76548,-0.64248 0.80051,-0.67645 0.0352,-0.036 0.56748,-0.80888 0.59977,-0.84471 0.0352,-0.0359 0.77112,-0.63888 0.80051,-0.67645 0.0281,-0.0359 0.3725,-0.80516 0.39915,-0.84425 a 5.9149445,7.0325524 89.93 0 0 0.20061,-4.2e-4 l 60.73789,-91.89378 -0.20062,4.4e-4 c 0.0281,-0.0419 0.57383,-0.79874 0.59977,-0.8447 0.0281,-0.0479 0.57762,-0.96591 0.59932,-1.01341 0.0211,-0.0479 0.38124,-0.96424 0.39871,-1.01294 0.0139,-0.0478 0.18526,-0.7942 0.1985,-0.84383 0.0139,-0.0478 0.18976,-0.96223 0.19808,-1.01257 0.007,-0.0478 0.19356,-1.13048 0.19765,-1.18116 0.005,-0.0478 -0.003,-0.96133 -0.003,-1.01215 -3.3e-4,-0.0478 0.004,-0.96145 -0.003,-1.01205 z"
     id="path4082"
     style="opacity:0.07000002;fill:#000000;fill-opacity:1;fill-rule:evenodd;stroke:none" />
  <path
     d="m 257.58655,239.55205 a 8.9966683,7.6912598 0.01326099 0 0 -8.77769,-7.16578 l -115.80939,-2.1183 a 8.9966683,7.6912598 0.01326099 0 0 -8.09387,11.25578 l 55.69524,89.64292 a 8.9966683,7.6912598 0.01326099 0 0 15.61902,0.28568 l 60.11416,-87.5246 a 8.9966683,7.6912598 0.01326099 0 0 1.25253,-4.3757 z"
     id="path4044-8"
     style="opacity:0.15;fill:#000000;fill-opacity:1;fill-rule:evenodd;stroke:none"
     inkscape:connector-curvature="0" />
  <path
     d="m 255.23268,223.43668 a 8.2719317,9.4918303 89.802434 0 0 -9.36741,-7.59995 l -122.2058,-0.87697 a 8.2719317,9.4918303 89.802434 0 0 -8.37006,12.20248 l 60.09841,95.72886 a 8.2719317,9.4918303 89.802434 0 0 16.48176,0.11827 l 62.10725,-94.85188 a 8.2719317,9.4918303 89.802434 0 0 1.25585,-4.72081 z"
     id="path4044"
     style="fill:#fafafa;fill-opacity:1;fill-rule:evenodd;stroke:none"
     inkscape:connector-curvature="0" />
  <rect
     style="opacity:0.77067668;fill:#ffd5d5;fill-opacity:0"
     id="rect4178"
     width="33.627121"
     height="101.9661"
     x="169.22034"
     y="126.91525"
     ry="1.0847458" />
  <rect
     style="opacity:0.07000002;fill:#000000;fill-opacity:1"
     id="rect4186"
     width="41.803196"
     height="47.939438"
     x="169.13036"
     y="168.01515"
     ry="7.0730362"
     rx="0" />
  <rect
     style="opacity:0.15;fill:#000000;fill-opacity:1"
     id="rect4186-3"
     width="36.050465"
     height="44.296043"
     x="171.97981"
     y="171.02946"
     ry="6.7170262"
     rx="0" />
  <rect
     style="opacity:1;fill:#ffffff;fill-opacity:1"
     id="rect4203"
     width="27.613119"
     height="111.21951"
     x="172.11606"
     y="164.69977"
     ry="6.2116914" />
</svg>
